<?xml version="1.0" encoding="utf-8"?>
<!-- Generator: Adobe Illustrator 27.8.1, SVG Export Plug-In . SVG Version: 6.00 Build 0)  -->
<svg version="1.1" id="Layer_1" xmlns="http://www.w3.org/2000/svg" xmlns:xlink="http://www.w3.org/1999/xlink" x="0px" y="0px"
	 viewBox="0 0 300 100" style="enable-background:new 0 0 300 100;" xml:space="preserve">
<style type="text/css">
	.st0{fill:#F5F5F5;}
	.st1{fill:none;stroke:#FF6B00;stroke-width:4;}
	.st2{fill:#FF6B00;}
	.st3{opacity:0.8;fill:#333333;enable-background:new    ;}
	.st4{fill:#333333;}
	.st5{font-family:'Arial-BoldMT';}
	.st6{font-size:40px;}
	.st7{font-family:'ArialMT';}
	.st8{font-size:12px;}
</style>
<path class="st0" d="M35.9,15h248.3c4.9,0,8.9,3.3,8.9,7.3v58.4c0,4-4,7.3-8.9,7.3H35.9C31,88,27,84.7,27,80.7V22.3
	C27,18.3,31,15,35.9,15z"/>
<g transform="translate(20, 25)">
	<path class="st1" d="M37,26.5h30l5-20H32L37,26.5z"/>
	<circle class="st1" cx="47" cy="41.5" r="8"/>
	<circle class="st1" cx="67" cy="41.5" r="8"/>
	<path class="st2" d="M82-3.5l-10,20h10l-5,20l10-25H77L82-3.5z"/>
	<path class="st3" d="M22,21.5l5,5l-10,10l5,5l10-10l5,5l5-5l-5-5l5-5l-5-5L22,21.5z"/>
</g>
<text transform="matrix(1 0 0 1 112.3828 57)" class="st4 st5 st6">FastCart</text>
<text transform="matrix(1 0 0 1 127 71.9043)" class="st2 st7 st8">Hardware Delivered Fast</text>
</svg>
